<svg xmlns="http://www.w3.org/2000/svg" width="1280" height="800" viewBox="0 0 1280 800" preserveAspectRatio="xMidYMid meet">
<defs>
 <linearGradient id="bg" x1="0" y1="0" x2="1" y2="1"><stop stop-color="#20272d"/><stop offset=".55" stop-color="#151b20"/><stop offset="1" stop-color="#0c1115"/></linearGradient>
 <linearGradient id="sky" x1="0" y1="0" x2="0" y2="1"><stop stop-color="#37424a" stop-opacity=".95"/><stop offset=".62" stop-color="#1f292f" stop-opacity=".7"/><stop offset="1" stop-color="#0f1519" stop-opacity=".15"/></linearGradient>
 <linearGradient id="road" x1="0" y1="0" x2="0" y2="1"><stop stop-color="#66737b"/><stop offset=".55" stop-color="#2e383e"/><stop offset="1" stop-color="#151b1f"/></linearGradient>
 <linearGradient id="yellow" x1="0" y1="0" x2="1" y2="1"><stop stop-color="#fff12b"/><stop offset="1" stop-color="#c7ae14"/></linearGradient>
 <linearGradient id="cyan" x1="0" y1="0" x2="1" y2="1"><stop stop-color="#5adfff"/><stop offset="1" stop-color="#118fc1"/></linearGradient>
 <pattern id="checks" width="64" height="64" patternUnits="userSpaceOnUse"><rect width="32" height="32" fill="#d7dde1"/><rect x="32" y="32" width="32" height="32" fill="#d7dde1"/><rect x="32" width="32" height="32" fill="#20272c"/><rect y="32" width="32" height="32" fill="#20272c"/></pattern>
 <filter id="soft"><feGaussianBlur stdDeviation="12"/></filter>
 <filter id="shadow" x="-20%" y="-20%" width="140%" height="140%"><feDropShadow dx="0" dy="5" stdDeviation="4" flood-opacity=".55"/></filter>
 <filter id="grain"><feTurbulence baseFrequency=".8" numOctaves="2" seed="7" type="fractalNoise"/><feColorMatrix values="1 0 0 0 0  0 1 0 0 0  0 0 1 0 0  0 0 0 .08 0"/></filter>
</defs>
<rect width="1280" height="800" fill="url(#bg)"/>
<rect width="1280" height="330" fill="url(#sky)"/>
<g opacity=".19" transform="translate(-120,-75) skewX(-7)"><path d="M0 0H520V310H0Z" fill="url(#checks)"/></g>
<g opacity=".11" transform="translate(1040,520) rotate(-8)"><path d="M0 0H380V260H0Z" fill="url(#checks)"/></g>
<path d="M0 302L110 210L205 250L300 145L378 230L476 126L548 215L638 165L714 248L798 170L890 255L980 155L1080 245L1190 185L1280 260V350H0Z" fill="#1a242a"/>
<path d="M0 335L130 250L230 310L335 220L450 302L570 205L660 285L770 230L880 310L1000 245L1135 310L1280 250V390H0Z" fill="#10171b" opacity=".94"/>
<ellipse cx="680" cy="335" rx="570" ry="75" fill="#8fa3ae" opacity=".08" filter="url(#soft)"/>
<g opacity=".92" filter="url(#shadow)">
 <path d="M590 325C745 290 872 278 1010 290C1095 297 1165 312 1230 338L1220 362C1140 340 1067 327 995 322C845 311 722 321 600 349Z" fill="url(#road)"/>
 <path d="M915 320C950 270 964 225 966 178C968 118 1000 82 1047 84C1099 86 1123 130 1121 188C1120 231 1106 270 1075 319" fill="none" stroke="#48555d" stroke-width="52"/>
 <path d="M915 320C950 270 964 225 966 178C968 118 1000 82 1047 84C1099 86 1123 130 1121 188C1120 231 1106 270 1075 319" fill="none" stroke="#20292f" stroke-width="38"/>
 <path d="M700 346C760 384 812 405 865 406C925 406 962 383 1008 351C1062 313 1123 306 1207 339" fill="none" stroke="#505d65" stroke-width="44"/>
 <path d="M700 346C760 384 812 405 865 406C925 406 962 383 1008 351C1062 313 1123 306 1207 339" fill="none" stroke="#20282d" stroke-width="30"/>
</g>
<g transform="translate(938 286) scale(.85)" filter="url(#shadow)">
 <path d="M0 53L42 17L137 0L218 13L255 44L239 71L40 78Z" fill="#11171b" stroke="#697780" stroke-width="3"/>
 <path d="M60 20L135 8L188 18L210 42L88 43Z" fill="#2d3941"/><path d="M13 54L51 46L222 45L244 58L232 69L34 72Z" fill="#1d272d"/>
 <rect x="212" y="22" width="72" height="8" rx="3" fill="#151b1f"/><rect x="238" y="18" width="7" height="31" fill="#151b1f"/>
 <circle cx="62" cy="72" r="22" fill="#0b0e10" stroke="#45515a" stroke-width="6"/><circle cx="205" cy="70" r="22" fill="#0b0e10" stroke="#45515a" stroke-width="6"/>
 <rect x="13" y="53" width="18" height="8" fill="#d8e6ef"/><rect x="225" y="53" width="12" height="7" fill="#b41f20"/>
</g>
<g filter="url(#shadow)">
 <text x="62" y="105" font-family="Arial Black,Impact,sans-serif" font-size="74" font-style="italic" font-weight="900" fill="url(#yellow)" transform="skewX(-9)">STUNTS</text>
 <text x="520" y="105" font-family="Arial Black,Impact,sans-serif" font-size="74" font-style="italic" font-weight="900" fill="url(#cyan)" transform="skewX(-9)">DX</text>
 <text x="95" y="145" font-family="Arial,Helvetica,sans-serif" font-size="18" letter-spacing="8" font-weight="700" fill="#d6dde2">TEST DRIVE  •  BUILD  •  JUMP  •  REPEAT</text>
</g>
<path d="M0 188C260 176 504 182 770 192C980 200 1120 196 1280 183V214C1120 226 957 228 760 218C512 205 260 205 0 220Z" fill="#0a0f12" opacity=".34"/>
<g opacity=".18"><path d="M0 460C210 420 360 430 520 470" fill="none" stroke="#7f909a" stroke-width="4"/><path d="M0 478C205 440 360 448 520 488" fill="none" stroke="#7f909a" stroke-width="1"/></g>
<rect y="0" width="1280" height="800" filter="url(#grain)" opacity=".45"/>
<rect y="390" width="1280" height="410" fill="url(#bg)" opacity=".2"/>
</svg>